<svg id="Contacts" xmlns="http://www.w3.org/2000/svg" viewBox="0 0 48 48"><defs><style>.cls-1{fill:#60bdf2;}.cls-2{fill:none;stroke:#60bdf2;stroke-miterlimit:10;}</style></defs><title>Contacts</title><path class="cls-1" d="M42,11a1,1,0,0,1,1,1V36a1,1,0,0,1-1,1H6a1,1,0,0,1-1-1V12a1,1,0,0,1,1-1H42m0-1H6a2,2,0,0,0-2,2V36a2,2,0,0,0,2,2H42a2,2,0,0,0,2-2V12a2,2,0,0,0-2-2Z"/><circle class="cls-1" cx="13" cy="18" r="4"/><path class="cls-1" d="M13,32.3H11.47c-2.47,0-4-.21-4-3.11a7.06,7.06,0,0,1,2.65-5.72,4.49,4.49,0,0,0,5.7,0A7.06,7.06,0,0,1,18.5,29.2c0,1.8-.59,2.36-1,2.63a5.85,5.85,0,0,1-2.94.48Z"/><path class="cls-1" d="M15.85,24.11A6.71,6.71,0,0,1,18,29.2c0,2.27-.78,2.61-3.47,2.61H11.47C8.78,31.81,8,31.47,8,29.2a6.71,6.71,0,0,1,2.15-5.09,5,5,0,0,0,5.7,0m0-1.27a4,4,0,0,1-5.62,0A7.48,7.48,0,0,0,7,29.2c0,3.34,1.9,3.61,4.47,3.61h3.06c2.57,0,4.47-.27,4.47-3.61a7.48,7.48,0,0,0-3.19-6.36Z"/><line class="cls-2" x1="26" y1="16.5" x2="41" y2="16.5"/><line class="cls-2" x1="26" y1="33.5" x2="41" y2="33.5"/><line class="cls-2" x1="26" y1="22.5" x2="38.5" y2="22.5"/><line class="cls-2" x1="26" y1="27.5" x2="41" y2="27.5"/></svg>