<svg id="dashboard" xmlns="http://www.w3.org/2000/svg" viewBox="0 0 48 48"><defs><style>.cls-1{fill:#60bdf2;}</style></defs><title>Dashboard</title><rect class="cls-1" x="26.5" y="4.5" width="17" height="39" rx="1.5" ry="1.5"/><path class="cls-1" d="M42,5a1,1,0,0,1,1,1V42a1,1,0,0,1-1,1H28a1,1,0,0,1-1-1V6a1,1,0,0,1,1-1H42m0-1H28a2,2,0,0,0-2,2V42a2,2,0,0,0,2,2H42a2,2,0,0,0,2-2V6a2,2,0,0,0-2-2Z"/><path class="cls-1" d="M20,5a1,1,0,0,1,1,1V16a1,1,0,0,1-1,1H6a1,1,0,0,1-1-1V6A1,1,0,0,1,6,5H20m0-1H6A2,2,0,0,0,4,6V16a2,2,0,0,0,2,2H20a2,2,0,0,0,2-2V6a2,2,0,0,0-2-2Z"/><path class="cls-1" d="M20,21a1,1,0,0,1,1,1V42a1,1,0,0,1-1,1H6a1,1,0,0,1-1-1V22a1,1,0,0,1,1-1H20m0-1H6a2,2,0,0,0-2,2V42a2,2,0,0,0,2,2H20a2,2,0,0,0,2-2V22a2,2,0,0,0-2-2Z"/></svg>