<svg xmlns="http://www.w3.org/2000/svg" viewBox="0 0 48 48"><defs><style>.cls-1{fill:#60bdf2;}.cls-2{fill:none;stroke:#60bdf2;stroke-miterlimit:10;}</style></defs><title>Notes</title><g id="Notes"><path class="cls-1" d="M29.59,6,38,14.41V42a1,1,0,0,1-1,1H11a1,1,0,0,1-1-1V7a1,1,0,0,1,1-1H29.59M30,5H11A2,2,0,0,0,9,7V42a2,2,0,0,0,2,2H37a2,2,0,0,0,2-2V14L30,5Z"/><polygon class="cls-1" points="30.5 13.5 30.5 6.21 37.79 13.5 30.5 13.5"/><path class="cls-1" d="M31,7.41,36.59,13H31V7.41M30,5v9h9L30,5Z"/><line class="cls-2" x1="14" y1="20.5" x2="27" y2="20.5"/><line class="cls-2" x1="14" y1="25.5" x2="32" y2="25.5"/><line class="cls-2" x1="14" y1="28.5" x2="32" y2="28.5"/><line class="cls-2" x1="14" y1="31.5" x2="27" y2="31.5"/><line class="cls-2" x1="14" y1="34.5" x2="31" y2="34.5"/></g></svg>