<svg xmlns="http://www.w3.org/2000/svg" viewBox="0 0 48 48"><defs><style>.cls-1{fill:#60bdf2;}.cls-2{fill:none;stroke:#60bdf2;stroke-linecap:round;stroke-miterlimit:10;stroke-width:2px;}</style></defs><title>Tasks</title><g id="tasks"><path class="cls-1" d="M42,13a1,1,0,0,1,1,1V42a1,1,0,0,1-1,1H6a1,1,0,0,1-1-1V14a1,1,0,0,1,1-1H42m0-1H6a2,2,0,0,0-2,2V42a2,2,0,0,0,2,2H42a2,2,0,0,0,2-2V14a2,2,0,0,0-2-2Z"/><path class="cls-1" d="M4.5,20.5V14A1.5,1.5,0,0,1,6,12.5H42A1.5,1.5,0,0,1,43.5,14v6.5Zm27-2h5v-6h-5Zm-20,0h5v-6h-5Z"/><path class="cls-1" d="M42,13a1,1,0,0,1,1,1v6H5V14a1,1,0,0,1,1-1h5v6h6V13H31v6h6V13h5m0-1H6a2,2,0,0,0-2,2v7H44V14a2,2,0,0,0-2-2ZM32,18V13h4v5ZM12,18V13h4v5Z"/><line class="cls-2" x1="14" y1="9" x2="14" y2="16"/><line class="cls-2" x1="34" y1="9" x2="34" y2="16"/><path class="cls-1" d="M17.5,30.27l6.1,4.06a.7.7,0,0,0,.4.12h0a.75.75,0,0,0,.41-.12L33.51,28,24,38.24Z"/><path class="cls-1" d="M35.9,27h0M30,31.05l-6,6.43-4-4.94,3.31,2.21A1.26,1.26,0,0,0,24,35a1.2,1.2,0,0,0,.69-.21L30,31.05m5.44-4.93a.2.2,0,0,0-.13,0L24.12,33.91A.17.17,0,0,1,24,34a.28.28,0,0,1-.13,0l-7.64-5.1a.19.19,0,0,0-.12,0,.22.22,0,0,0-.17.36l7.9,9.66a.22.22,0,0,0,.33,0L35.62,26.49a.22.22,0,0,0-.16-.37Z"/></g></svg>