<svg id="dashboard" xmlns="http://www.w3.org/2000/svg" viewBox="0 0 48 48"><defs><style>.cls-1{fill:#60bdf2;}</style></defs><title>Dashboard</title><rect class="cls-1" x="26.71" y="4.71" width="16.58" height="38.58" rx="1.29" ry="1.29"/><path class="cls-1" d="M42,5.42a.58.58,0,0,1,.58.58V42a.58.58,0,0,1-.58.58H28a.58.58,0,0,1-.58-.58V6A.58.58,0,0,1,28,5.42H42M42,4H28a2,2,0,0,0-2,2V42a2,2,0,0,0,2,2H42a2,2,0,0,0,2-2V6a2,2,0,0,0-2-2Z"/><path class="cls-1" d="M20,5.42a.58.58,0,0,1,.58.58V16a.58.58,0,0,1-.58.58H6A.58.58,0,0,1,5.42,16V6A.58.58,0,0,1,6,5.42H20M20,4H6A2,2,0,0,0,4,6V16a2,2,0,0,0,2,2H20a2,2,0,0,0,2-2V6a2,2,0,0,0-2-2Z"/><path class="cls-1" d="M20,21.42a.58.58,0,0,1,.58.58V42a.58.58,0,0,1-.58.58H6A.58.58,0,0,1,5.42,42V22A.58.58,0,0,1,6,21.42H20M20,20H6a2,2,0,0,0-2,2V42a2,2,0,0,0,2,2H20a2,2,0,0,0,2-2V22a2,2,0,0,0-2-2Z"/></svg>