<svg xmlns="http://www.w3.org/2000/svg" viewBox="0 0 48 48"><defs><style>.cls-1{fill:#60bdf2;}.cls-2{fill:none;stroke:#60bdf2;stroke-miterlimit:10;stroke-width:1.42px;}</style></defs><title>Notes</title><g id="Notes"><path class="cls-1" d="M29.41,6.42l8.17,8.17V42a.58.58,0,0,1-.58.58H11a.58.58,0,0,1-.58-.58V7A.58.58,0,0,1,11,6.42H29.41M30,5H11A2,2,0,0,0,9,7V42a2,2,0,0,0,2,2H37a2,2,0,0,0,2-2V14L30,5Z"/><polygon class="cls-1" points="29.71 14.29 29.71 6.85 36.41 14.29 29.71 14.29"/><path class="cls-1" d="M30.42,8.69l4.4,4.89h-4.4V8.69M29,5V15h9L29,5Z"/><line class="cls-2" x1="14" y1="20.5" x2="27" y2="20.5"/><line class="cls-2" x1="14" y1="25.5" x2="32" y2="25.5"/><line class="cls-2" x1="14" y1="28.5" x2="32" y2="28.5"/><line class="cls-2" x1="14" y1="31.5" x2="27" y2="31.5"/><line class="cls-2" x1="14" y1="34.5" x2="31" y2="34.5"/></g></svg>