<svg xmlns="http://www.w3.org/2000/svg" viewBox="0 0 48 48"><defs><style>.cls-1,.cls-3{fill:#60bdf2;}.cls-2{fill:none;stroke-linecap:round;stroke-width:2.27px;}.cls-2,.cls-3{stroke:#60bdf2;stroke-miterlimit:10;}.cls-3{stroke-width:1.42px;}</style></defs><title>Tasks</title><g id="tasks"><path class="cls-1" d="M42,13.42a.58.58,0,0,1,.58.58V42a.58.58,0,0,1-.58.58H6A.58.58,0,0,1,5.42,42V14A.58.58,0,0,1,6,13.42H42M42,12H6a2,2,0,0,0-2,2V42a2,2,0,0,0,2,2H42a2,2,0,0,0,2-2V14a2,2,0,0,0-2-2Z"/><path class="cls-1" d="M4.71,20.29V14A1.29,1.29,0,0,1,6,12.71h5.29v6h5.42v-6H31.29v6h5.42v-6H42A1.29,1.29,0,0,1,43.29,14v6.29Z"/><path class="cls-1" d="M42,13.42a.58.58,0,0,1,.58.58v5.58H5.42V14A.58.58,0,0,1,6,13.42h4.58v6h6.84v-6H30.58v6h6.84v-6H42M42,12H6a2,2,0,0,0-2,2v7H44V14a2,2,0,0,0-2-2ZM32,18V13h4v5ZM12,18V13h4v5Z"/><line class="cls-2" x1="14" y1="9" x2="14" y2="16"/><line class="cls-2" x1="34" y1="9" x2="34" y2="16"/><path class="cls-3" d="M14.44,29.16,23.5,35.5s14.56-10.38,15-10-15,14-15,14L14.27,29.35A.13.13,0,0,1,14.44,29.16Z"/></g></svg>